<svg xmlns="http://www.w3.org/2000/svg" xmlns:xlink="http://www.w3.org/1999/xlink" width="700" zoomAndPan="magnify" viewBox="0 0 525 431.999984" height="576" preserveAspectRatio="xMidYMid meet" version="1.0"><defs><g/><clipPath id="d040c0e09e"><path d="M 86.675781 75.339844 L 126.832031 75.339844 L 126.832031 356.429688 L 86.675781 356.429688 Z M 86.675781 75.339844 " clip-rule="nonzero"/></clipPath><clipPath id="e4d1a3cc01"><path d="M 398.152344 75.558594 L 438.308594 75.558594 L 438.308594 356.648438 L 398.152344 356.648438 Z M 398.152344 75.558594 " clip-rule="nonzero"/></clipPath></defs><g clip-path="url(#d040c0e09e)"><path fill="#8addda" d="M 126.785156 356.40625 L 86.683594 356.40625 L 86.683594 75.324219 L 126.785156 75.324219 L 126.785156 90.878906 L 101.882812 90.878906 L 101.882812 340.851562 L 126.785156 340.851562 L 126.785156 356.40625 " fill-opacity="1" fill-rule="nonzero"/></g><g clip-path="url(#e4d1a3cc01)"><path fill="#8addda" d="M 398.203125 75.582031 L 438.300781 75.582031 L 438.300781 356.664062 L 398.203125 356.664062 L 398.203125 341.109375 L 423.101562 341.109375 L 423.101562 91.136719 L 398.203125 91.136719 L 398.203125 75.582031 " fill-opacity="1" fill-rule="nonzero"/></g><g fill="#8addda" fill-opacity="1"><g transform="translate(141.858534, 273.202311)"><g><path d="M 58.046875 -94.140625 C 74.898438 -94.140625 87.769531 -90.1875 96.65625 -82.28125 C 105.550781 -74.375 110 -62.285156 110 -46.015625 L 110 -40.09375 L 40.96875 -40.09375 C 40.96875 -33.46875 42.445312 -28.46875 45.40625 -25.09375 C 48.375 -21.726562 53.054688 -20.046875 59.453125 -20.046875 C 65.253906 -20.046875 69.519531 -21.265625 72.25 -23.703125 C 74.988281 -26.148438 76.359375 -29.40625 76.359375 -33.46875 L 110 -33.46875 C 110 -22.3125 105.753906 -13.59375 97.265625 -7.3125 C 88.785156 -1.039062 76.410156 2.09375 60.140625 2.09375 C 43.054688 2.09375 29.804688 -1.882812 20.390625 -9.84375 C 10.984375 -17.8125 6.28125 -29.867188 6.28125 -46.015625 C 6.28125 -61.828125 10.867188 -73.800781 20.046875 -81.9375 C 29.222656 -90.070312 41.890625 -94.140625 58.046875 -94.140625 Z M 59.453125 -72 C 48.523438 -72 42.421875 -66.828125 41.140625 -56.484375 L 74.96875 -56.484375 C 74.96875 -61.242188 73.597656 -65.019531 70.859375 -67.8125 C 68.128906 -70.601562 64.328125 -72 59.453125 -72 Z M 59.453125 -72 "/></g></g></g><g fill="#8addda" fill-opacity="1"><g transform="translate(266.847554, 273.202311)"><g><path d="M 74.609375 -92.046875 L 115.0625 -92.046875 L 81.0625 -54.90625 L 115.921875 0 L 76.53125 0 L 57.171875 -31.546875 L 45.15625 -19.875 L 45.15625 0 L 10.453125 0 L 10.453125 -126.5625 L 45.15625 -126.5625 L 45.15625 -56.828125 Z M 74.609375 -92.046875 "/></g></g></g></svg>